<svg width="233" height="112" viewBox="0 0 233 112" fill="none" xmlns="http://www.w3.org/2000/svg">
<g clip-path="url(#clip0_2057_841)">
<mask id="mask0_2057_841" style="mask-type:luminance" maskUnits="userSpaceOnUse" x="0" y="0" width="233" height="112">
<path d="M233 0H0V112H233V0Z" fill="white"/>
</mask>
<g mask="url(#mask0_2057_841)">
<path d="M36.7471 58.5974L20.1638 78.4461V85.8112H50.3048V75.9579H36.604L49.7847 59.2564V48.7444H20.7317V58.5974H36.7471ZM65.9908 73.6595V85.9059H77.8497V73.6595L90.1809 48.6968H77.9451L71.8988 62.773L65.8955 48.6968H53.6597L65.9908 73.6595ZM125.471 74.176V48.6968H113.66V70.0478C113.66 74.4082 112.763 76.4271 110.21 76.4271H108.745C106.764 76.4271 105.347 74.4082 105.347 70.0478V48.6968H93.5358V74.176C93.5358 81.5409 99.253 85.8586 107.518 85.8586H111.961C120.513 85.8586 125.471 81.5409 125.471 74.176ZM132.797 85.8112H144.607V75.4413H147.013L153.154 85.8112H165.395L158.213 74.5979C161.191 72.8158 163.076 68.6878 163.076 62.4933C163.076 53.1568 158.824 48.7444 150.086 48.7444H132.797V85.8112ZM148.621 66.9957H144.607V58.1282H148.621C151.456 58.1282 152.73 59.5359 152.73 62.6783C152.73 65.8251 151.456 66.9957 148.621 66.9957ZM185.801 72.0147L188.97 61.6972L191.566 72.0147H185.801ZM168.702 85.8586H181.506L182.875 81.3561H193.928L195.064 85.8112H207.82L194.687 48.6968H182.212L168.702 85.8586Z" fill="#063C79"/>
<path d="M49.5725 37.9054C69.8684 10.434 107.843 -1.63758 140.899 7.81983C152.154 11.0289 163.491 15.9707 171.964 24.2362C178.196 30.7914 169.861 40.4005 162.425 35.3151C158.358 32.3681 154.442 29.3196 150.243 26.5539C119.014 5.81234 75.8245 11.4244 49.5725 37.9054Z" fill="url(#paint0_linear_2057_841)"/>
<path d="M3.8888 103.231H3.11572C3.11572 104.426 3.82677 105.127 5.04843 105.127H6.13173C7.26273 105.127 7.78767 104.634 7.78767 103.573V103.483C7.78767 102.762 7.41067 102.279 6.6996 102.089L4.41374 101.492C4.04151 101.393 3.8888 101.194 3.8888 100.8V100.725C3.8888 100.17 4.23241 99.8808 5.04843 99.8808H5.85494C6.63757 99.8808 7.01457 100.265 7.01457 101.066L7.78767 101.056C7.78767 99.8618 7.0766 99.1558 5.85494 99.1558H5.04843C3.85541 99.1558 3.11572 99.7197 3.11572 100.715V100.8C3.11572 101.521 3.49272 102.004 4.20854 102.194L6.48963 102.791C6.86186 102.89 7.01457 103.089 7.01457 103.483V103.573C7.01457 104.127 6.75688 104.402 5.94084 104.402H5.13433C4.35172 104.402 3.8888 104.037 3.8888 103.231ZM13.4761 99.8808V105.127H14.2492V99.8808H16.3108V99.1558H11.4145V99.8808H13.4761ZM24.4711 103.231V99.1558H23.698V103.231C23.698 104.037 23.321 104.402 22.5384 104.402H21.8178C21.0352 104.402 20.6582 104.037 20.6582 103.231V99.1558H19.8851V103.231C19.8851 104.426 20.5961 105.127 21.8178 105.127H22.5384C23.7553 105.127 24.4711 104.426 24.4711 103.231ZM31.7725 104.402H29.5488V99.8808H31.7725C32.5552 99.8808 32.9323 100.265 32.9323 101.066V103.231C32.9323 104.037 32.5552 104.402 31.7725 104.402ZM31.7725 99.1558H28.7755V105.127H31.7725C32.9894 105.127 33.7053 104.426 33.7053 103.231V101.066C33.7053 99.8712 32.9894 99.1558 31.7725 99.1558ZM39.3842 103.165V105.127H40.1573V103.165L42.1758 99.1558H41.3218L39.7707 102.355L38.215 99.1558H37.3655L39.3842 103.165ZM51.725 103.231H50.9518C50.9518 104.426 51.6677 105.127 52.8846 105.127H53.9679C55.1035 105.127 55.6239 104.634 55.6239 103.573V103.483C55.6239 102.762 55.2469 102.279 54.5357 102.089L52.2499 101.492C51.8825 101.393 51.725 101.194 51.725 100.8V100.725C51.725 100.17 52.0686 99.8808 52.8846 99.8808H53.6911C54.4738 99.8808 54.8507 100.265 54.8507 101.066L55.6239 101.056C55.6239 99.8618 54.9128 99.1558 53.6911 99.1558H52.8846C51.6915 99.1558 50.9518 99.7197 50.9518 100.715V100.8C50.9518 101.521 51.3288 102.004 52.0447 102.194L54.3305 102.791C54.6979 102.89 54.8507 103.089 54.8507 103.483V103.573C54.8507 104.127 54.5931 104.402 53.7771 104.402H52.9705C52.1878 104.402 51.725 104.037 51.725 103.231ZM59.8425 99.1558V105.127H60.6156V100.862L62.3335 105.127H63.1925L64.9104 100.862V105.127H65.6834V99.1558H64.7912L62.763 104.189L60.7348 99.1558H59.8425ZM73.6054 103.056H71.267L72.4362 100.113L73.6054 103.056ZM75.2707 105.127L72.8227 99.1558H72.0497L69.6015 105.127H70.451L70.9853 103.781H73.8869L74.4214 105.127H75.2707ZM81.6464 102.047H79.9618V99.8808H81.6464C82.4624 99.8808 82.6676 100.232 82.6676 100.923C82.6676 101.777 82.4244 102.047 81.6464 102.047ZM79.9618 105.127V102.772H81.4795H81.4984L82.8109 105.127H83.7844L82.41 102.672C83.1545 102.464 83.4409 101.947 83.4409 100.957C83.4409 99.6911 82.9063 99.1558 81.6511 99.1558H79.1887V105.127H79.9618ZM89.4633 99.8808V105.127H90.2364V99.8808H92.2978V99.1558H87.4016V99.8808H89.4633ZM96.2541 99.1558V105.127H100.635V104.402H97.0271V102.502H100.205V101.777H97.0271V99.8808H100.635V99.1558H96.2541ZM107.225 102.047H105.541V99.8808H107.225C108.041 99.8808 108.246 100.232 108.246 100.923C108.246 101.777 108.008 102.047 107.225 102.047ZM105.541 105.127V102.772H107.063H107.077L108.394 105.127H109.363L107.989 102.672C108.738 102.464 109.019 101.947 109.019 100.957C109.019 99.6911 108.49 99.1558 107.235 99.1558H104.768V105.127H105.541ZM114.422 104.198H113.367V105.317H114.422V104.198ZM126.381 102.525H124.672V99.8902H126.381C127.163 99.8902 127.54 100.265 127.54 101.066V101.355C127.54 102.161 127.163 102.525 126.381 102.525ZM124.672 105.127V103.25H126.381C127.602 103.25 128.313 102.549 128.313 101.355V101.066C128.313 99.8712 127.602 99.1651 126.381 99.1651H123.899V105.127H124.672ZM135.271 103.056H132.933L134.102 100.113L135.271 103.056ZM136.937 105.127L134.488 99.1558H133.715L131.267 105.127H132.117L132.651 103.781H135.553L136.087 105.127H136.937ZM141.351 103.231H140.578C140.578 104.426 141.294 105.127 142.511 105.127H143.594C144.73 105.127 145.255 104.634 145.255 103.573V103.483C145.255 102.762 144.873 102.279 144.162 102.089L141.876 101.492C141.509 101.393 141.351 101.194 141.351 100.8V100.725C141.351 100.17 141.695 99.8808 142.511 99.8808H143.322C144.1 99.8808 144.481 100.265 144.481 101.066L145.255 101.056C145.255 99.8618 144.539 99.1558 143.322 99.1558H142.511C141.318 99.1558 140.578 99.7197 140.578 100.715V100.8C140.578 101.521 140.96 102.004 141.671 102.194L143.957 102.791C144.324 102.89 144.481 103.089 144.481 103.483V103.573C144.481 104.127 144.224 104.402 143.408 104.402H142.597C141.819 104.402 141.351 104.037 141.351 103.231ZM150.113 103.231H149.34C149.34 104.426 150.055 105.127 151.272 105.127H152.355C153.491 105.127 154.016 104.634 154.016 103.573V103.483C154.016 102.762 153.634 102.279 152.924 102.089L150.638 101.492C150.27 101.393 150.113 101.194 150.113 100.8V100.725C150.113 100.17 150.456 99.8808 151.272 99.8808H152.083C152.861 99.8808 153.243 100.265 153.243 101.066L154.016 101.056C154.016 99.8618 153.3 99.1558 152.083 99.1558H151.272C150.079 99.1558 149.34 99.7197 149.34 100.715V100.8C149.34 101.521 149.721 102.004 150.432 102.194L152.718 102.791C153.086 102.89 153.243 103.089 153.243 103.483V103.573C153.243 104.127 152.985 104.402 152.169 104.402H151.358C150.58 104.402 150.113 104.037 150.113 103.231ZM163.995 103.231H163.222C163.222 104.426 163.938 105.127 165.155 105.127H166.238C167.374 105.127 167.894 104.634 167.894 103.573V103.483C167.894 102.762 167.517 102.279 166.806 102.089L164.52 101.492C164.152 101.393 163.995 101.194 163.995 100.8V100.725C163.995 100.17 164.339 99.8808 165.155 99.8808H165.961C166.744 99.8808 167.121 100.265 167.121 101.066L167.894 101.056C167.894 99.8618 167.183 99.1558 165.961 99.1558H165.155C163.961 99.1558 163.222 99.7197 163.222 100.715V100.8C163.222 101.521 163.599 102.004 164.315 102.194L166.6 102.791C166.968 102.89 167.121 103.089 167.121 103.483V103.573C167.121 104.127 166.863 104.402 166.047 104.402H165.24C164.458 104.402 163.995 104.037 163.995 103.231ZM173.582 99.8808V105.127H174.355V99.8808H176.417V99.1558H171.521V99.8808H173.582ZM182.835 102.047H181.151V99.8808H182.835C183.651 99.8808 183.857 100.232 183.857 100.923C183.857 101.777 183.613 102.047 182.835 102.047ZM181.151 105.127V102.772H182.668H182.687L184 105.127H184.973L183.599 102.672C184.343 102.464 184.63 101.947 184.63 100.957C184.63 99.6911 184.095 99.1558 182.84 99.1558H180.378V105.127H181.151ZM191.931 104.402H190.867C190.084 104.402 189.707 104.037 189.707 103.231V101.066C189.707 100.265 190.084 99.8902 190.867 99.8902H191.931C192.714 99.8902 193.091 100.265 193.091 101.066V103.231C193.091 104.037 192.714 104.402 191.931 104.402ZM190.867 105.127H191.931C193.148 105.127 193.864 104.426 193.864 103.231V101.066C193.864 99.8712 193.148 99.1651 191.931 99.1651H190.867C189.645 99.1651 188.934 99.8712 188.934 101.066V103.231C188.934 104.426 189.645 105.127 190.867 105.127ZM198.168 99.1558V105.127H198.922V100.222L202.206 105.127H203.15V99.1558H202.392V104.061L199.113 99.1558H198.168ZM212.385 103.231V101.777H210.022V102.502H211.611V103.231C211.611 104.037 211.23 104.402 210.452 104.402H209.383C208.605 104.402 208.223 104.037 208.223 103.231V101.066C208.223 100.265 208.605 99.8902 209.383 99.8902H210.452C211.23 99.8902 211.611 100.265 211.611 101.066H212.385C212.385 99.8712 211.669 99.1651 210.452 99.1651H209.383C208.166 99.1651 207.45 99.8712 207.45 101.066V103.231C207.45 104.426 208.166 105.127 209.383 105.127H210.452C211.669 105.127 212.385 104.426 212.385 103.231ZM216.684 99.1558V105.127H221.065V104.402H217.457V102.502H220.636V101.777H217.457V99.8808H221.065V99.1558H216.684ZM227.655 102.047H225.971V99.8808H227.655C228.471 99.8808 228.677 100.232 228.677 100.923C228.677 101.777 228.438 102.047 227.655 102.047ZM225.971 105.127V102.772H227.493H227.508L228.825 105.127H229.793L228.419 102.672C229.168 102.464 229.45 101.947 229.45 100.957C229.45 99.6911 228.92 99.1558 227.665 99.1558H225.198V105.127H225.971Z" fill="#063C79"/>
</g>
</g>
<defs>
<linearGradient id="paint0_linear_2057_841" x1="79.1543" y1="3.71799" x2="146.983" y2="63.0879" gradientUnits="userSpaceOnUse">
<stop offset="0.175" stop-color="#69ABF7"/>
<stop offset="1" stop-color="#0A5BB8"/>
</linearGradient>
<clipPath id="clip0_2057_841">
<rect width="233" height="112" fill="white"/>
</clipPath>
</defs>
</svg>
